# xmcd
# 
# Track frame offsets:
#     150
#     57840
#     123717
#     161260
#     191740
#     265267
# 
# Disc length: 3953
# 
# Revision: 1
# Processed by: cddbd v1.5.2PL0 Copyright (c) Steve Scherf et al.
# Submitted via: fre:ac v1.0.17
# 
DISCID=500f6f06
DTITLE=Kei Akagi Trio - Live - Shapes In Time [CD2]
DYEAR=2006
DGENRE=Jazz
TTITLE0=Violet Blue
TTITLE1=Giant Steps
TTITLE2=Time Will Reveal
TTITLE3=Night Shade
TTITLE4=Night Runners
TTITLE5=Some Other Time
EXTD=YEAR: 2006
EXTT0=
EXTT1=
EXTT2=
EXTT3=
EXTT4=
EXTT5=
PLAYORDER=
